<?xml version="1.0" standalone="no"?>
<!DOCTYPE svg PUBLIC "-//W3C//DTD SVG 20010904//EN"
 "http://www.w3.org/TR/2001/REC-SVG-20010904/DTD/svg10.dtd">
<svg version="1.0" xmlns="http://www.w3.org/2000/svg"
 width="611.000000pt" height="611.000000pt" viewBox="0 0 611.000000 611.000000"
 preserveAspectRatio="xMidYMid meet">
<metadata>
Created by potrace 1.11, written by Peter Selinger 2001-2013
</metadata>
<g transform="translate(0.000000,611.000000) scale(0.100000,-0.100000)"
fill="#000000" stroke="none">
<path d="M907 5209 c-342 -342 -571 -703 -726 -1144 -126 -359 -177 -692 -168
-1094 11 -481 111 -877 331 -1307 356 -696 969 -1228 1713 -1487 595 -207
1272 -221 1880 -37 845 255 1539 865 1899 1670 114 255 204 572 246 865 21
145 17 641 -6 790 -10 66 -21 123 -25 127 -6 6 -482 -11 -490 -18 -7 -7 82
-250 141 -384 75 -169 125 -316 171 -495 41 -159 100 -455 93 -462 -3 -3 -123
20 -267 51 -144 31 -264 55 -265 53 -2 -1 2 -35 7 -76 28 -204 -71 -453 -267
-670 -55 -61 -210 -188 -294 -240 -30 -19 -91 -69 -135 -111 -251 -238 -526
-382 -945 -495 -74 -20 -236 -69 -360 -110 -309 -101 -455 -129 -649 -123
l-104 3 -23 67 -23 68 137 1 c125 0 278 14 196 18 -50 2 -120 30 -161 66 l-38
33 35 6 c19 3 94 14 165 26 72 11 186 25 255 30 540 45 896 137 1120 290 69
48 170 141 170 158 0 6 -7 12 -16 12 -33 0 105 93 221 150 275 133 443 279
527 457 42 89 58 156 58 248 0 225 -104 411 -380 685 -162 160 -183 187 -199
245 -32 122 91 234 382 346 l88 34 14 49 c8 27 15 51 15 53 0 2 -22 3 -50 3
-37 0 -50 -4 -50 -14 0 -19 -52 -58 -112 -84 -26 -11 -121 -39 -210 -62 -223
-56 -293 -98 -318 -188 -37 -134 17 -304 197 -617 101 -175 144 -261 176 -351
30 -84 45 -170 28 -160 -7 5 -11 -1 -11 -14 0 -30 -24 -35 -74 -16 -61 23
-103 57 -151 122 -38 51 -43 63 -47 126 -9 113 -105 288 -207 374 -39 33 -39
20 -1 -26 17 -19 30 -37 30 -41 0 -4 -37 18 -82 48 -45 30 -173 100 -283 155
-110 55 -221 116 -246 134 -58 43 -119 122 -177 233 -25 47 -56 98 -70 114
-26 28 -64 35 -92 17 -13 -8 -12 -10 3 -10 23 0 22 -7 -12 -71 -16 -30 -45
-112 -66 -184 -61 -214 -105 -283 -214 -334 -46 -21 -70 -25 -136 -25 -95 1
-165 24 -246 84 -30 21 -77 55 -106 75 -63 44 -123 130 -152 217 -11 35 -30
122 -41 193 -31 200 -25 185 -71 185 -21 0 -39 -4 -39 -10 0 -34 108 -347 138
-400 20 -36 38 -68 40 -72 3 -6 -67 7 -72 14 -2 1 -9 31 -15 66 -26 137 -130
402 -158 402 -11 0 -13 -5 -8 -17 62 -147 84 -231 92 -342 l6 -93 -44 7 c-24
4 -47 9 -51 12 -4 2 -7 28 -7 58 1 37 -7 70 -23 107 -24 51 -82 128 -97 128
-4 0 -18 -23 -32 -51 -31 -67 -138 -183 -160 -174 -13 5 -15 16 -11 54 5 59
-8 102 -59 190 -54 94 -67 100 -218 92 l-124 -6 87 -48 c112 -61 193 -122 213
-161 15 -29 20 -82 9 -93 -3 -3 -191 35 -420 83 l-414 89 -31 52 c-17 28 -49
95 -71 150 -42 104 -53 114 -20 18 11 -32 18 -60 16 -63 -7 -7 -55 153 -67
225 -19 112 -14 295 9 394 42 173 114 291 344 560 l47 56 -114 343 c-63 188
-117 345 -119 348 -3 3 -75 -64 -159 -149z m-393 -1823 l6 -24 -128 -6 c-70
-3 -163 -9 -207 -11 -45 -4 -76 -2 -70 3 6 5 48 35 94 68 46 32 111 88 144
124 57 62 127 184 127 221 0 10 3 26 8 36 4 10 10 -73 13 -184 4 -112 10 -214
13 -227z m51 32 c7 -55 6 -58 -14 -58 -20 0 -21 4 -21 123 0 157 13 206 21 82
3 -49 10 -116 14 -147z m444 -65 c17 -35 29 -63 26 -63 -5 0 -65 116 -65 126
0 12 6 2 39 -63z m3530 -880 c28 -42 67 -170 59 -194 -2 -7 -32 52 -66 131
-62 143 -60 164 7 63z m329 -596 c-39 -73 -202 -164 -308 -172 l-65 -5 65 15
c97 22 197 75 259 139 57 58 72 65 49 23z m-919 -101 c-2 -2 -33 -6 -69 -9
-40 -4 -57 -2 -45 3 19 8 123 14 114 6z m-656 -93 c4 -3 -10 -12 -30 -19 -46
-16 -54 -11 -16 10 32 18 37 18 46 9z m-678 -678 c51 -23 57 -28 40 -35 -11
-5 -41 -9 -68 -9 -50 -1 -50 -1 -71 67 -8 25 -7 25 99 -23z"/>
<path d="M1345 4334 l-40 -36 48 33 c26 18 47 34 47 36 0 10 -20 -2 -55 -33z"/>
<path d="M4351 3526 l-243 -11 -30 -35 c-17 -19 -25 -25 -19 -13 19 37 14 44
-26 41 l-38 -3 -22 -85 c-44 -163 -16 -316 65 -363 48 -28 76 -16 119 51 79
122 174 202 387 321 70 40 142 81 160 92 l31 19 -70 -2 c-38 0 -180 -6 -314
-12z"/>
<path d="M3315 3456 c-9 -13 -43 -83 -76 -156 -118 -262 -187 -331 -331 -330
-103 1 -225 65 -289 152 -18 24 -30 36 -27 28 3 -8 13 -42 23 -75 44 -155 108
-205 261 -205 140 0 237 75 328 255 36 72 146 333 146 347 0 16 -20 7 -35 -16z"/>
<path d="M5276 3402 c-22 -27 -24 -32 -7 -17 20 17 47 55 39 55 -2 0 -16 -17
-32 -38z"/>
<path d="M2646 3397 c-13 -58 -2 -157 22 -211 12 -27 24 -47 26 -45 2 2 -3 42
-11 89 -8 47 -18 112 -22 145 l-8 60 -7 -38z"/>
<path d="M5210 3355 c-14 -8 -20 -14 -14 -15 5 0 19 7 30 15 24 18 16 19 -16
0z"/>
<path d="M3430 3285 c-6 -8 -10 -19 -8 -24 1 -5 11 2 21 15 19 26 8 34 -13 9z"/>
<path d="M4969 3231 c-25 -25 -29 -37 -29 -83 0 -51 3 -58 65 -136 36 -45 70
-84 75 -87 5 -3 -11 36 -34 87 -59 125 -74 190 -52 223 22 33 11 32 -25 -4z"/>
<path d="M3042 3110 c-38 -43 -68 -65 -105 -79 -44 -17 -47 -20 -24 -20 60 -2
112 39 172 132 25 40 16 33 -43 -33z"/>
<path d="M4365 3139 c-4 -6 -5 -12 -2 -15 2 -3 7 2 10 11 7 17 1 20 -8 4z"/>
<path d="M3836 3100 c19 -71 71 -135 150 -186 55 -35 159 -74 196 -74 13 0 -6
11 -42 23 -117 42 -243 139 -289 223 -14 25 -19 30 -15 14z"/>
<path d="M4346 3083 c-14 -69 -18 -108 -12 -102 8 7 27 121 22 127 -2 2 -7 -9
-10 -25z"/>
<path d="M4342 2940 c0 -19 2 -27 5 -17 2 9 2 25 0 35 -3 9 -5 1 -5 -18z"/>
<path d="M4228 2833 c6 -2 18 -2 25 0 6 3 1 5 -13 5 -14 0 -19 -2 -12 -5z"/>
</g>
</svg>
